<svg width="238" height="17" viewBox="0 0 238 17" fill="none" xmlns="http://www.w3.org/2000/svg">
<path d="M10.35 7.16C10.638 7.16 10.92 7.13 11.196 7.07C11.472 6.998 11.718 6.89 11.934 6.746C12.162 6.602 12.342 6.416 12.474 6.188C12.606 5.948 12.672 5.666 12.672 5.342C12.672 5.006 12.606 4.724 12.474 4.496C12.354 4.256 12.186 4.064 11.97 3.92C11.754 3.764 11.508 3.656 11.232 3.596C10.956 3.524 10.668 3.488 10.368 3.488H2.664V7.16H10.35ZM10.368 4.496C10.5 4.496 10.644 4.508 10.8 4.532C10.956 4.556 11.1 4.604 11.232 4.676C11.364 4.736 11.472 4.82 11.556 4.928C11.64 5.036 11.682 5.174 11.682 5.342C11.682 5.51 11.634 5.648 11.538 5.756C11.454 5.852 11.34 5.936 11.196 6.008C11.064 6.068 10.92 6.11 10.764 6.134C10.608 6.158 10.47 6.17 10.35 6.17H3.672V4.496H10.368ZM11.322 11.912C11.61 11.912 11.898 11.882 12.186 11.822C12.474 11.75 12.726 11.642 12.942 11.498C13.17 11.342 13.35 11.15 13.482 10.922C13.626 10.682 13.698 10.394 13.698 10.058C13.698 9.758 13.638 9.494 13.518 9.266C13.398 9.038 13.236 8.852 13.032 8.708C12.828 8.552 12.594 8.438 12.33 8.366C12.078 8.282 11.814 8.24 11.538 8.24H2.664V11.912H11.322ZM11.538 9.23C11.658 9.23 11.784 9.248 11.916 9.284C12.06 9.308 12.186 9.356 12.294 9.428C12.414 9.488 12.51 9.572 12.582 9.68C12.654 9.788 12.69 9.914 12.69 10.058C12.69 10.238 12.642 10.382 12.546 10.49C12.462 10.598 12.348 10.682 12.204 10.742C12.072 10.802 11.922 10.844 11.754 10.868C11.598 10.892 11.454 10.904 11.322 10.904H3.672V9.23H11.538ZM10.368 2.39C10.86 2.39 11.316 2.444 11.736 2.552C12.156 2.66 12.516 2.834 12.816 3.074C13.128 3.314 13.368 3.62 13.536 3.992C13.716 4.364 13.812 4.814 13.824 5.342C13.824 5.63 13.758 5.906 13.626 6.17C13.506 6.422 13.356 6.644 13.176 6.836C12.996 7.028 12.804 7.184 12.6 7.304C12.396 7.412 12.222 7.472 12.078 7.484C12.402 7.508 12.726 7.592 13.05 7.736C13.374 7.868 13.662 8.048 13.914 8.276C14.178 8.504 14.394 8.768 14.562 9.068C14.73 9.368 14.814 9.698 14.814 10.058C14.814 10.598 14.724 11.06 14.544 11.444C14.364 11.816 14.112 12.122 13.788 12.362C13.476 12.59 13.104 12.758 12.672 12.866C12.252 12.962 11.802 13.01 11.322 13.01H1.584V2.39H10.368ZM11.322 14.018C11.97 14.018 12.57 13.946 13.122 13.802C13.674 13.646 14.148 13.412 14.544 13.1C14.94 12.776 15.252 12.368 15.48 11.876C15.708 11.372 15.822 10.766 15.822 10.058C15.822 9.458 15.654 8.924 15.318 8.456C14.994 7.988 14.502 7.616 13.842 7.34C13.986 7.22 14.118 7.082 14.238 6.926C14.358 6.758 14.46 6.584 14.544 6.404C14.628 6.224 14.694 6.044 14.742 5.864C14.79 5.672 14.814 5.498 14.814 5.342C14.814 4.658 14.706 4.07 14.49 3.578C14.274 3.074 13.968 2.66 13.572 2.336C13.188 2.012 12.72 1.772 12.168 1.616C11.628 1.46 11.028 1.382 10.368 1.382H0.576V14.018H11.322ZM0.126 0.932H10.368C11.448 0.932 12.426 1.112 13.302 1.472C14.178 1.832 14.994 2.462 15.75 3.362C16.002 3.662 16.23 4.034 16.434 4.478C16.638 4.91 16.782 5.366 16.866 5.846C16.95 6.314 16.95 6.776 16.866 7.232C16.794 7.688 16.602 8.078 16.29 8.402C16.602 8.522 16.866 8.726 17.082 9.014C17.298 9.29 17.472 9.596 17.604 9.932C17.748 10.268 17.85 10.61 17.91 10.958C17.982 11.306 18.018 11.606 18.018 11.858C18.018 12.638 17.892 13.304 17.64 13.856C17.4 14.396 17.064 14.84 16.632 15.188C16.2 15.548 15.684 15.806 15.084 15.962C14.484 16.13 13.83 16.214 13.122 16.214H1.98L0.126 14.468V0.932ZM21.4786 2.39H22.5586V11.912H32.7286V13.01H21.4786V2.39ZM20.4886 14.018H33.7186V10.904H23.5666V1.382H20.4886V14.018ZM20.0386 0.932H24.0166L25.7626 2.786V10.454H34.1686L35.9146 12.308V16.214H21.8926L20.0386 14.468V0.932ZM40.3377 2.39V7.7C40.3377 8.48 40.4637 9.14 40.7157 9.68C40.9677 10.208 41.3157 10.64 41.7597 10.976C42.2157 11.3 42.7437 11.54 43.3437 11.696C43.9437 11.84 44.5977 11.912 45.3057 11.912H47.2857C47.9817 11.912 48.6297 11.84 49.2297 11.696C49.8417 11.54 50.3697 11.3 50.8137 10.976C51.2697 10.64 51.6237 10.208 51.8757 9.68C52.1397 9.14 52.2717 8.48 52.2717 7.7V2.39H53.4057V7.7C53.4057 8.672 53.2497 9.494 52.9377 10.166C52.6257 10.838 52.1937 11.39 51.6417 11.822C51.1017 12.242 50.4597 12.548 49.7157 12.74C48.9717 12.92 48.1617 13.01 47.2857 13.01H45.3057C44.4297 13.01 43.6137 12.92 42.8577 12.74C42.1137 12.548 41.4657 12.242 40.9137 11.822C40.3737 11.39 39.9477 10.838 39.6357 10.166C39.3357 9.494 39.1857 8.672 39.1857 7.7V2.39H40.3377ZM38.1957 7.7C38.1957 8.84 38.3697 9.812 38.7177 10.616C39.0657 11.408 39.5517 12.056 40.1757 12.56C40.8117 13.064 41.5617 13.436 42.4257 13.676C43.3017 13.904 44.2617 14.018 45.3057 14.018H47.2857C48.3297 14.018 49.2837 13.904 50.1477 13.676C51.0237 13.436 51.7737 13.064 52.3977 12.56C53.0337 12.056 53.5257 11.408 53.8737 10.616C54.2217 9.812 54.3957 8.84 54.3957 7.7V1.382H51.2637V7.7C51.2637 8.312 51.1557 8.822 50.9397 9.23C50.7237 9.638 50.4357 9.968 50.0757 10.22C49.7157 10.46 49.2957 10.634 48.8157 10.742C48.3357 10.85 47.8257 10.904 47.2857 10.904H45.3057C44.7657 10.904 44.2557 10.85 43.7757 10.742C43.2957 10.634 42.8757 10.454 42.5157 10.202C42.1557 9.95 41.8677 9.62 41.6517 9.212C41.4477 8.804 41.3457 8.3 41.3457 7.7V1.382H38.1957V7.7ZM37.7457 0.932H41.7957L43.5417 2.786V9.5C43.5417 9.632 43.5417 9.758 43.5417 9.878C43.5537 9.998 43.5717 10.112 43.5957 10.22C44.0997 10.376 44.6697 10.454 45.3057 10.454H47.2857C47.7537 10.454 48.1977 10.412 48.6177 10.328C49.0497 10.232 49.4277 10.076 49.7517 9.86C50.0757 9.644 50.3337 9.362 50.5257 9.014C50.7177 8.666 50.8137 8.228 50.8137 7.7V0.932H54.8457L56.5917 2.786V9.5C56.5917 10.712 56.4057 11.744 56.0337 12.596C55.6617 13.448 55.1457 14.138 54.4857 14.666C53.8257 15.206 53.0337 15.596 52.1097 15.836C51.1857 16.088 50.1777 16.214 49.0857 16.214H47.1057C46.4937 16.214 45.8997 16.184 45.3237 16.124C44.7597 16.064 44.2197 15.962 43.7037 15.818C43.1997 15.686 42.7317 15.506 42.2997 15.278C41.8677 15.05 41.4837 14.768 41.1477 14.432C40.4637 13.844 39.8997 13.286 39.4557 12.758C39.0237 12.218 38.6817 11.678 38.4297 11.138C38.1777 10.598 37.9977 10.052 37.8897 9.5C37.7937 8.936 37.7457 8.336 37.7457 7.7V0.932ZM61.0349 2.39H61.9709L68.1809 11.606C69.2009 10.046 70.2269 8.504 71.2589 6.98C72.3029 5.456 73.3529 3.926 74.4089 2.39H75.3449V13.01H74.2289V4.658L68.6309 13.01H67.7489L62.1509 4.676V13.01H61.0349V2.39ZM63.1409 7.952L67.1909 14.018H69.1709L73.2389 7.934V14.018H76.3349V1.382H73.8509L68.1629 9.806L62.5109 1.382H60.0449V14.018H63.1409V7.952ZM64.5089 2.786L68.4149 8.636L73.6349 0.932H76.7849L78.5309 2.786V16.214H74.6429L72.7889 14.468V13.802L71.1689 16.214H68.7929L66.9749 14.468L65.3369 12.02V16.214H61.4489L59.5949 14.468V0.932H62.7269L64.5089 2.786ZM83.9084 7.16H93.0704V8.24H83.9084V11.912H94.9424V13.01H82.7924V2.39H94.9244V3.488H83.9084V7.16ZM84.8984 4.496H95.9324V1.382H81.7844V14.018H95.9504V10.904H84.8984V9.23H94.0604V6.17H84.8984V4.496ZM81.3344 14.468V0.932H96.3824L98.1284 2.786V6.692H95.3744L96.2564 7.574V10.454L98.1464 12.308V16.214H83.1884L81.3344 14.468ZM112.206 13.01L102.504 4.1V13.01H101.442V2.39H102.36L112.026 11.3V2.39H113.106V13.01H112.206ZM114.114 14.018V1.382H111.036V9.032L102.702 1.382H100.434V14.018H103.512V6.35L111.864 14.018H114.114ZM99.984 14.468V0.932H102.864L110.586 8.006V0.932H114.564L116.31 2.786V16.214H113.502L105.708 9.068V16.214H101.838L99.984 14.468ZM121.401 10.544C121.785 10.916 122.211 11.198 122.679 11.39C123.147 11.582 123.633 11.72 124.137 11.804C124.641 11.876 125.157 11.918 125.685 11.93C126.213 11.93 126.723 11.93 127.215 11.93C127.395 11.93 127.635 11.924 127.935 11.912C128.247 11.9 128.577 11.876 128.925 11.84C129.285 11.792 129.645 11.732 130.005 11.66C130.365 11.576 130.689 11.468 130.977 11.336C131.277 11.204 131.517 11.048 131.697 10.868C131.889 10.676 131.985 10.448 131.985 10.184C131.985 9.92 131.883 9.692 131.679 9.5C131.487 9.296 131.235 9.122 130.923 8.978C130.611 8.834 130.257 8.714 129.861 8.618C129.477 8.51 129.093 8.432 128.709 8.384C128.325 8.324 127.965 8.282 127.629 8.258C127.305 8.234 127.041 8.222 126.837 8.222H126.855C126.567 8.21 126.213 8.18 125.793 8.132C125.373 8.084 124.935 8.012 124.479 7.916C124.023 7.82 123.567 7.7 123.111 7.556C122.655 7.4 122.247 7.214 121.887 6.998C121.527 6.782 121.233 6.53 121.005 6.242C120.777 5.942 120.663 5.6 120.663 5.216C120.663 4.796 120.771 4.436 120.987 4.136C121.215 3.836 121.503 3.584 121.851 3.38C122.211 3.164 122.613 2.996 123.057 2.876C123.501 2.744 123.951 2.642 124.407 2.57C124.863 2.498 125.295 2.45 125.703 2.426C126.123 2.402 126.477 2.39 126.765 2.39C127.233 2.39 127.707 2.414 128.187 2.462C128.679 2.498 129.159 2.57 129.627 2.678C130.095 2.786 130.551 2.936 130.995 3.128C131.439 3.308 131.847 3.542 132.219 3.83L131.265 4.514C130.917 4.274 130.551 4.088 130.167 3.956C129.783 3.812 129.387 3.704 128.979 3.632C128.571 3.56 128.157 3.518 127.737 3.506C127.317 3.482 126.909 3.47 126.513 3.47C126.237 3.47 125.859 3.488 125.379 3.524C124.911 3.56 124.443 3.638 123.975 3.758C123.519 3.866 123.123 4.04 122.787 4.28C122.451 4.508 122.283 4.82 122.283 5.216C122.283 5.6 122.445 5.912 122.769 6.152C123.093 6.38 123.519 6.566 124.047 6.71C124.575 6.842 125.175 6.95 125.847 7.034C126.531 7.106 127.227 7.184 127.935 7.268C128.643 7.352 129.333 7.454 130.005 7.574C130.689 7.682 131.295 7.844 131.823 8.06C132.351 8.264 132.777 8.54 133.101 8.888C133.425 9.224 133.587 9.656 133.587 10.184C133.587 10.556 133.473 10.886 133.245 11.174C133.029 11.462 132.741 11.714 132.381 11.93C132.021 12.134 131.613 12.308 131.157 12.452C130.713 12.584 130.263 12.692 129.807 12.776C129.363 12.86 128.937 12.92 128.529 12.956C128.121 12.992 127.785 13.01 127.521 13.01H126.171C125.679 13.01 125.163 12.992 124.623 12.956C124.083 12.92 123.555 12.842 123.039 12.722C122.523 12.59 122.031 12.41 121.563 12.182C121.095 11.954 120.681 11.642 120.321 11.246L121.401 10.544ZM118.827 10.868C119.307 11.648 119.877 12.254 120.537 12.686C121.197 13.106 121.911 13.418 122.679 13.622C123.447 13.814 124.239 13.928 125.055 13.964C125.883 14 126.705 14.018 127.521 14.018C127.881 14.018 128.307 13.994 128.799 13.946C129.291 13.886 129.801 13.796 130.329 13.676C130.857 13.556 131.373 13.4 131.877 13.208C132.393 13.004 132.849 12.764 133.245 12.488C133.653 12.2 133.977 11.87 134.217 11.498C134.469 11.114 134.595 10.676 134.595 10.184C134.595 9.596 134.463 9.098 134.199 8.69C133.947 8.27 133.611 7.922 133.191 7.646C132.783 7.358 132.309 7.13 131.769 6.962C131.241 6.782 130.695 6.644 130.131 6.548C129.567 6.452 129.015 6.38 128.475 6.332C127.935 6.284 127.455 6.242 127.035 6.206C126.891 6.194 126.615 6.17 126.207 6.134C125.799 6.086 125.379 6.026 124.947 5.954C124.515 5.87 124.131 5.768 123.795 5.648C123.459 5.528 123.291 5.384 123.291 5.216C123.291 5.024 123.447 4.88 123.759 4.784C124.071 4.688 124.425 4.616 124.821 4.568C125.229 4.52 125.619 4.496 125.991 4.496C126.375 4.484 126.633 4.478 126.765 4.478C127.149 4.478 127.539 4.496 127.935 4.532C128.331 4.556 128.715 4.616 129.087 4.712C129.471 4.808 129.831 4.946 130.167 5.126C130.515 5.306 130.833 5.54 131.121 5.828L133.749 4.064C133.293 3.44 132.777 2.954 132.201 2.606C131.625 2.246 131.013 1.976 130.365 1.796C129.717 1.616 129.039 1.502 128.331 1.454C127.635 1.406 126.933 1.382 126.225 1.382C125.853 1.382 125.427 1.412 124.947 1.472C124.479 1.52 123.999 1.604 123.507 1.724C123.027 1.844 122.553 2 122.085 2.192C121.629 2.384 121.221 2.624 120.861 2.912C120.501 3.2 120.213 3.536 119.997 3.92C119.781 4.292 119.673 4.724 119.673 5.216C119.673 5.78 119.811 6.266 120.087 6.674C120.363 7.082 120.729 7.43 121.185 7.718C121.641 8.006 122.157 8.24 122.733 8.42C123.309 8.6 123.891 8.75 124.479 8.87C125.079 8.978 125.655 9.068 126.207 9.14C126.771 9.2 127.263 9.254 127.683 9.302C127.803 9.314 128.037 9.338 128.385 9.374C128.745 9.41 129.117 9.464 129.501 9.536C129.885 9.596 130.227 9.68 130.527 9.788C130.827 9.896 130.977 10.028 130.977 10.184C130.977 10.316 130.881 10.43 130.689 10.526C130.497 10.61 130.251 10.682 129.951 10.742C129.651 10.79 129.321 10.826 128.961 10.85C128.601 10.874 128.247 10.892 127.899 10.904C127.563 10.916 127.257 10.922 126.981 10.922C126.717 10.922 126.531 10.922 126.423 10.922C125.967 10.922 125.517 10.904 125.073 10.868C124.629 10.82 124.197 10.736 123.777 10.616C123.357 10.484 122.961 10.304 122.589 10.076C122.217 9.848 121.881 9.542 121.581 9.158L118.827 10.868ZM121.437 8.708L120.573 7.826C120.153 7.514 119.823 7.148 119.583 6.728C119.343 6.296 119.223 5.792 119.223 5.216C119.223 4.664 119.337 4.178 119.565 3.758C119.805 3.326 120.117 2.954 120.501 2.642C120.885 2.33 121.323 2.066 121.815 1.85C122.307 1.622 122.811 1.442 123.327 1.31C123.843 1.178 124.353 1.082 124.857 1.022C125.361 0.962 125.817 0.932 126.225 0.932C126.933 0.932 127.647 0.955999 128.367 1.004C129.087 1.04 129.789 1.148 130.473 1.328C131.169 1.508 131.835 1.784 132.471 2.156C133.107 2.528 133.701 3.05 134.253 3.722C134.625 4.094 134.919 4.406 135.135 4.658C135.351 4.898 135.519 5.102 135.639 5.27C135.771 5.438 135.867 5.576 135.927 5.684C135.987 5.78 136.047 5.87 136.107 5.954L133.803 7.502C133.863 7.562 133.929 7.616 134.001 7.664C134.085 7.7 134.199 7.778 134.343 7.898C134.487 8.018 134.673 8.192 134.901 8.42C135.141 8.636 135.459 8.948 135.855 9.356C136.143 9.656 136.371 10.04 136.539 10.508C136.707 10.976 136.791 11.468 136.791 11.984C136.791 12.524 136.659 13.004 136.395 13.424C136.131 13.844 135.789 14.21 135.369 14.522C134.949 14.834 134.469 15.098 133.929 15.314C133.389 15.53 132.843 15.704 132.291 15.836C131.739 15.968 131.199 16.064 130.671 16.124C130.155 16.184 129.705 16.214 129.321 16.214C128.613 16.214 127.893 16.214 127.161 16.214C126.429 16.214 125.709 16.154 125.001 16.034C124.305 15.914 123.627 15.716 122.967 15.44C122.307 15.164 121.701 14.744 121.149 14.18C120.681 13.748 120.285 13.37 119.961 13.046C119.649 12.71 119.379 12.41 119.151 12.146C118.935 11.87 118.749 11.618 118.593 11.39C118.449 11.162 118.311 10.94 118.179 10.724L121.437 8.708ZM144.67 13.01V3.488H138.64V2.39H151.798V3.488H145.75V13.01H144.67ZM146.74 14.018V4.496H152.788V1.382H137.65V4.496H143.68V14.018H146.74ZM137.2 4.946V0.932H153.238L154.984 2.786V6.692H148.936V16.214H145.084L143.23 14.468V6.692H139.054L137.2 4.946ZM167.078 4.496C167.222 4.496 167.372 4.508 167.528 4.532C167.684 4.556 167.828 4.598 167.96 4.658C168.092 4.718 168.2 4.802 168.284 4.91C168.38 5.018 168.428 5.162 168.428 5.342C168.428 5.51 168.38 5.648 168.284 5.756C168.188 5.864 168.068 5.948 167.924 6.008C167.792 6.068 167.642 6.11 167.474 6.134C167.318 6.158 167.18 6.17 167.06 6.17H160.4V4.496H167.078ZM167.06 7.16C167.348 7.16 167.63 7.13 167.906 7.07C168.194 6.998 168.452 6.89 168.68 6.746C168.908 6.602 169.088 6.416 169.22 6.188C169.364 5.948 169.436 5.666 169.436 5.342C169.436 5.006 169.37 4.718 169.238 4.478C169.106 4.238 168.926 4.046 168.698 3.902C168.482 3.758 168.23 3.656 167.942 3.596C167.666 3.524 167.378 3.488 167.078 3.488H159.41V7.16H167.06ZM168.698 7.97C168.53 8.066 168.344 8.138 168.14 8.186C167.936 8.234 167.744 8.282 167.564 8.33C168.236 9.122 168.908 9.902 169.58 10.67C170.264 11.438 170.948 12.218 171.632 13.01H170.174L166.016 8.24H159.41V13.01H158.294V2.39H167.078C167.57 2.39 168.026 2.444 168.446 2.552C168.878 2.66 169.244 2.834 169.544 3.074C169.856 3.314 170.096 3.62 170.264 3.992C170.444 4.364 170.534 4.814 170.534 5.342C170.534 6.002 170.384 6.548 170.084 6.98C169.784 7.4 169.328 7.73 168.716 7.97H168.698ZM171.542 5.342C171.542 4.658 171.434 4.07 171.218 3.578C171.002 3.074 170.696 2.66 170.3 2.336C169.904 2.012 169.43 1.772 168.878 1.616C168.338 1.46 167.738 1.382 167.078 1.382H157.322V14.018H160.4V9.23H165.548L169.688 14.018H173.828L169.292 8.816C170.792 8.156 171.542 6.998 171.542 5.342ZM156.872 14.468V0.932H167.078C167.546 0.932 167.996 0.968 168.428 1.04C168.86 1.1 169.292 1.232 169.724 1.436C170.168 1.64 170.624 1.934 171.092 2.318C171.572 2.702 172.082 3.212 172.622 3.848C172.97 4.196 173.24 4.664 173.432 5.252C173.636 5.828 173.738 6.458 173.738 7.142C173.738 7.934 173.564 8.636 173.216 9.248C172.88 9.86 172.388 10.358 171.74 10.742C172.112 11.174 172.502 11.624 172.91 12.092C173.318 12.56 173.726 13.034 174.134 13.514C174.542 13.982 174.944 14.444 175.34 14.9C175.748 15.368 176.132 15.806 176.492 16.214H171.308L169.49 14.468L166.862 11.426H162.596V16.214H158.726L156.872 14.468ZM190.505 9.104L186.707 3.722L182.819 9.104H190.505ZM188.561 8.132H184.745L186.671 5.432L188.561 8.132ZM193.187 13.01L191.243 10.22H182.045C181.709 10.676 181.379 11.144 181.055 11.624C180.743 12.092 180.419 12.554 180.083 13.01H178.643C179.915 11.222 181.181 9.452 182.441 7.7C183.713 5.948 184.979 4.178 186.239 2.39H187.103L194.537 13.01H193.187ZM185.753 1.382L176.753 14.018H180.569L182.549 11.228H190.685L192.647 14.018H196.463L187.643 1.382H185.753ZM189.659 2.786L199.019 16.214H194.231L192.413 14.468L191.675 13.424H184.565C184.421 13.64 184.259 13.868 184.079 14.108C183.911 14.348 183.737 14.588 183.557 14.828C183.389 15.08 183.221 15.32 183.053 15.548C182.885 15.788 182.729 16.01 182.585 16.214H177.779L175.871 14.468L185.519 0.932H187.877L189.659 2.786ZM201.582 2.39V7.7C201.582 8.48 201.708 9.14 201.96 9.68C202.212 10.208 202.56 10.64 203.004 10.976C203.46 11.3 203.988 11.54 204.588 11.696C205.188 11.84 205.842 11.912 206.55 11.912H208.53C209.226 11.912 209.874 11.84 210.474 11.696C211.086 11.54 211.614 11.3 212.058 10.976C212.514 10.64 212.868 10.208 213.12 9.68C213.384 9.14 213.516 8.48 213.516 7.7V2.39H214.65V7.7C214.65 8.672 214.494 9.494 214.182 10.166C213.87 10.838 213.438 11.39 212.886 11.822C212.346 12.242 211.704 12.548 210.96 12.74C210.216 12.92 209.406 13.01 208.53 13.01H206.55C205.674 13.01 204.858 12.92 204.102 12.74C203.358 12.548 202.71 12.242 202.158 11.822C201.618 11.39 201.192 10.838 200.88 10.166C200.58 9.494 200.43 8.672 200.43 7.7V2.39H201.582ZM199.44 7.7C199.44 8.84 199.614 9.812 199.962 10.616C200.31 11.408 200.796 12.056 201.42 12.56C202.056 13.064 202.806 13.436 203.67 13.676C204.546 13.904 205.506 14.018 206.55 14.018H208.53C209.574 14.018 210.528 13.904 211.392 13.676C212.268 13.436 213.018 13.064 213.642 12.56C214.278 12.056 214.77 11.408 215.118 10.616C215.466 9.812 215.64 8.84 215.64 7.7V1.382H212.508V7.7C212.508 8.312 212.4 8.822 212.184 9.23C211.968 9.638 211.68 9.968 211.32 10.22C210.96 10.46 210.54 10.634 210.06 10.742C209.58 10.85 209.07 10.904 208.53 10.904H206.55C206.01 10.904 205.5 10.85 205.02 10.742C204.54 10.634 204.12 10.454 203.76 10.202C203.4 9.95 203.112 9.62 202.896 9.212C202.692 8.804 202.59 8.3 202.59 7.7V1.382H199.44V7.7ZM198.99 0.932H203.04L204.786 2.786V9.5C204.786 9.632 204.786 9.758 204.786 9.878C204.798 9.998 204.816 10.112 204.84 10.22C205.344 10.376 205.914 10.454 206.55 10.454H208.53C208.998 10.454 209.442 10.412 209.862 10.328C210.294 10.232 210.672 10.076 210.996 9.86C211.32 9.644 211.578 9.362 211.77 9.014C211.962 8.666 212.058 8.228 212.058 7.7V0.932H216.09L217.836 2.786V9.5C217.836 10.712 217.65 11.744 217.278 12.596C216.906 13.448 216.39 14.138 215.73 14.666C215.07 15.206 214.278 15.596 213.354 15.836C212.43 16.088 211.422 16.214 210.33 16.214H208.35C207.738 16.214 207.144 16.184 206.568 16.124C206.004 16.064 205.464 15.962 204.948 15.818C204.444 15.686 203.976 15.506 203.544 15.278C203.112 15.05 202.728 14.768 202.392 14.432C201.708 13.844 201.144 13.286 200.7 12.758C200.268 12.218 199.926 11.678 199.674 11.138C199.422 10.598 199.242 10.052 199.134 9.5C199.038 8.936 198.99 8.336 198.99 7.7V0.932ZM222.423 10.544C222.807 10.916 223.233 11.198 223.701 11.39C224.169 11.582 224.655 11.72 225.159 11.804C225.663 11.876 226.179 11.918 226.707 11.93C227.235 11.93 227.745 11.93 228.237 11.93C228.417 11.93 228.657 11.924 228.957 11.912C229.269 11.9 229.599 11.876 229.947 11.84C230.307 11.792 230.667 11.732 231.027 11.66C231.387 11.576 231.711 11.468 231.999 11.336C232.299 11.204 232.539 11.048 232.719 10.868C232.911 10.676 233.007 10.448 233.007 10.184C233.007 9.92 232.905 9.692 232.701 9.5C232.509 9.296 232.257 9.122 231.945 8.978C231.633 8.834 231.279 8.714 230.883 8.618C230.499 8.51 230.115 8.432 229.731 8.384C229.347 8.324 228.987 8.282 228.651 8.258C228.327 8.234 228.063 8.222 227.859 8.222H227.877C227.589 8.21 227.235 8.18 226.815 8.132C226.395 8.084 225.957 8.012 225.501 7.916C225.045 7.82 224.589 7.7 224.133 7.556C223.677 7.4 223.269 7.214 222.909 6.998C222.549 6.782 222.255 6.53 222.027 6.242C221.799 5.942 221.685 5.6 221.685 5.216C221.685 4.796 221.793 4.436 222.009 4.136C222.237 3.836 222.525 3.584 222.873 3.38C223.233 3.164 223.635 2.996 224.079 2.876C224.523 2.744 224.973 2.642 225.429 2.57C225.885 2.498 226.317 2.45 226.725 2.426C227.145 2.402 227.499 2.39 227.787 2.39C228.255 2.39 228.729 2.414 229.209 2.462C229.701 2.498 230.181 2.57 230.649 2.678C231.117 2.786 231.573 2.936 232.017 3.128C232.461 3.308 232.869 3.542 233.241 3.83L232.287 4.514C231.939 4.274 231.573 4.088 231.189 3.956C230.805 3.812 230.409 3.704 230.001 3.632C229.593 3.56 229.179 3.518 228.759 3.506C228.339 3.482 227.931 3.47 227.535 3.47C227.259 3.47 226.881 3.488 226.401 3.524C225.933 3.56 225.465 3.638 224.997 3.758C224.541 3.866 224.145 4.04 223.809 4.28C223.473 4.508 223.305 4.82 223.305 5.216C223.305 5.6 223.467 5.912 223.791 6.152C224.115 6.38 224.541 6.566 225.069 6.71C225.597 6.842 226.197 6.95 226.869 7.034C227.553 7.106 228.249 7.184 228.957 7.268C229.665 7.352 230.355 7.454 231.027 7.574C231.711 7.682 232.317 7.844 232.845 8.06C233.373 8.264 233.799 8.54 234.123 8.888C234.447 9.224 234.609 9.656 234.609 10.184C234.609 10.556 234.495 10.886 234.267 11.174C234.051 11.462 233.763 11.714 233.403 11.93C233.043 12.134 232.635 12.308 232.179 12.452C231.735 12.584 231.285 12.692 230.829 12.776C230.385 12.86 229.959 12.92 229.551 12.956C229.143 12.992 228.807 13.01 228.543 13.01H227.193C226.701 13.01 226.185 12.992 225.645 12.956C225.105 12.92 224.577 12.842 224.061 12.722C223.545 12.59 223.053 12.41 222.585 12.182C222.117 11.954 221.703 11.642 221.343 11.246L222.423 10.544ZM219.849 10.868C220.329 11.648 220.899 12.254 221.559 12.686C222.219 13.106 222.933 13.418 223.701 13.622C224.469 13.814 225.261 13.928 226.077 13.964C226.905 14 227.727 14.018 228.543 14.018C228.903 14.018 229.329 13.994 229.821 13.946C230.313 13.886 230.823 13.796 231.351 13.676C231.879 13.556 232.395 13.4 232.899 13.208C233.415 13.004 233.871 12.764 234.267 12.488C234.675 12.2 234.999 11.87 235.239 11.498C235.491 11.114 235.617 10.676 235.617 10.184C235.617 9.596 235.485 9.098 235.221 8.69C234.969 8.27 234.633 7.922 234.213 7.646C233.805 7.358 233.331 7.13 232.791 6.962C232.263 6.782 231.717 6.644 231.153 6.548C230.589 6.452 230.037 6.38 229.497 6.332C228.957 6.284 228.477 6.242 228.057 6.206C227.913 6.194 227.637 6.17 227.229 6.134C226.821 6.086 226.401 6.026 225.969 5.954C225.537 5.87 225.153 5.768 224.817 5.648C224.481 5.528 224.313 5.384 224.313 5.216C224.313 5.024 224.469 4.88 224.781 4.784C225.093 4.688 225.447 4.616 225.843 4.568C226.251 4.52 226.641 4.496 227.013 4.496C227.397 4.484 227.655 4.478 227.787 4.478C228.171 4.478 228.561 4.496 228.957 4.532C229.353 4.556 229.737 4.616 230.109 4.712C230.493 4.808 230.853 4.946 231.189 5.126C231.537 5.306 231.855 5.54 232.143 5.828L234.771 4.064C234.315 3.44 233.799 2.954 233.223 2.606C232.647 2.246 232.035 1.976 231.387 1.796C230.739 1.616 230.061 1.502 229.353 1.454C228.657 1.406 227.955 1.382 227.247 1.382C226.875 1.382 226.449 1.412 225.969 1.472C225.501 1.52 225.021 1.604 224.529 1.724C224.049 1.844 223.575 2 223.107 2.192C222.651 2.384 222.243 2.624 221.883 2.912C221.523 3.2 221.235 3.536 221.019 3.92C220.803 4.292 220.695 4.724 220.695 5.216C220.695 5.78 220.833 6.266 221.109 6.674C221.385 7.082 221.751 7.43 222.207 7.718C222.663 8.006 223.179 8.24 223.755 8.42C224.331 8.6 224.913 8.75 225.501 8.87C226.101 8.978 226.677 9.068 227.229 9.14C227.793 9.2 228.285 9.254 228.705 9.302C228.825 9.314 229.059 9.338 229.407 9.374C229.767 9.41 230.139 9.464 230.523 9.536C230.907 9.596 231.249 9.68 231.549 9.788C231.849 9.896 231.999 10.028 231.999 10.184C231.999 10.316 231.903 10.43 231.711 10.526C231.519 10.61 231.273 10.682 230.973 10.742C230.673 10.79 230.343 10.826 229.983 10.85C229.623 10.874 229.269 10.892 228.921 10.904C228.585 10.916 228.279 10.922 228.003 10.922C227.739 10.922 227.553 10.922 227.445 10.922C226.989 10.922 226.539 10.904 226.095 10.868C225.651 10.82 225.219 10.736 224.799 10.616C224.379 10.484 223.983 10.304 223.611 10.076C223.239 9.848 222.903 9.542 222.603 9.158L219.849 10.868ZM222.459 8.708L221.595 7.826C221.175 7.514 220.845 7.148 220.605 6.728C220.365 6.296 220.245 5.792 220.245 5.216C220.245 4.664 220.359 4.178 220.587 3.758C220.827 3.326 221.139 2.954 221.523 2.642C221.907 2.33 222.345 2.066 222.837 1.85C223.329 1.622 223.833 1.442 224.349 1.31C224.865 1.178 225.375 1.082 225.879 1.022C226.383 0.962 226.839 0.932 227.247 0.932C227.955 0.932 228.669 0.955999 229.389 1.004C230.109 1.04 230.811 1.148 231.495 1.328C232.191 1.508 232.857 1.784 233.493 2.156C234.129 2.528 234.723 3.05 235.275 3.722C235.647 4.094 235.941 4.406 236.157 4.658C236.373 4.898 236.541 5.102 236.661 5.27C236.793 5.438 236.889 5.576 236.949 5.684C237.009 5.78 237.069 5.87 237.129 5.954L234.825 7.502C234.885 7.562 234.951 7.616 235.023 7.664C235.107 7.7 235.221 7.778 235.365 7.898C235.509 8.018 235.695 8.192 235.923 8.42C236.163 8.636 236.481 8.948 236.877 9.356C237.165 9.656 237.393 10.04 237.561 10.508C237.729 10.976 237.813 11.468 237.813 11.984C237.813 12.524 237.681 13.004 237.417 13.424C237.153 13.844 236.811 14.21 236.391 14.522C235.971 14.834 235.491 15.098 234.951 15.314C234.411 15.53 233.865 15.704 233.313 15.836C232.761 15.968 232.221 16.064 231.693 16.124C231.177 16.184 230.727 16.214 230.343 16.214C229.635 16.214 228.915 16.214 228.183 16.214C227.451 16.214 226.731 16.154 226.023 16.034C225.327 15.914 224.649 15.716 223.989 15.44C223.329 15.164 222.723 14.744 222.171 14.18C221.703 13.748 221.307 13.37 220.983 13.046C220.671 12.71 220.401 12.41 220.173 12.146C219.957 11.87 219.771 11.618 219.615 11.39C219.471 11.162 219.333 10.94 219.201 10.724L222.459 8.708Z" fill="white"/>
</svg>
