<svg width="1269" height="82" viewBox="0 0 1269 82" fill="none" xmlns="http://www.w3.org/2000/svg">
<path d="M55.2 33.52C56.736 33.52 58.24 33.36 59.712 33.04C61.184 32.656 62.496 32.08 63.648 31.312C64.864 30.544 65.824 29.552 66.528 28.336C67.232 27.056 67.584 25.552 67.584 23.824C67.584 22.032 67.232 20.528 66.528 19.312C65.888 18.032 64.992 17.008 63.84 16.24C62.688 15.408 61.376 14.832 59.904 14.512C58.432 14.128 56.896 13.936 55.296 13.936H14.208V33.52H55.2ZM55.296 19.312C56 19.312 56.768 19.376 57.6 19.504C58.432 19.632 59.2 19.888 59.904 20.272C60.608 20.592 61.184 21.04 61.632 21.616C62.08 22.192 62.304 22.928 62.304 23.824C62.304 24.72 62.048 25.456 61.536 26.032C61.088 26.544 60.48 26.992 59.712 27.376C59.008 27.696 58.24 27.92 57.408 28.048C56.576 28.176 55.84 28.24 55.2 28.24H19.584V19.312H55.296ZM60.384 58.864C61.92 58.864 63.456 58.704 64.992 58.384C66.528 58 67.872 57.424 69.024 56.656C70.24 55.824 71.2 54.8 71.904 53.584C72.672 52.304 73.056 50.768 73.056 48.976C73.056 47.376 72.736 45.968 72.096 44.752C71.456 43.536 70.592 42.544 69.504 41.776C68.416 40.944 67.168 40.336 65.76 39.952C64.416 39.504 63.008 39.28 61.536 39.28H14.208V58.864H60.384ZM61.536 44.56C62.176 44.56 62.848 44.656 63.552 44.848C64.32 44.976 64.992 45.232 65.568 45.616C66.208 45.936 66.72 46.384 67.104 46.96C67.488 47.536 67.68 48.208 67.68 48.976C67.68 49.936 67.424 50.704 66.912 51.28C66.464 51.856 65.856 52.304 65.088 52.624C64.384 52.944 63.584 53.168 62.688 53.296C61.856 53.424 61.088 53.488 60.384 53.488H19.584V44.56H61.536ZM55.296 8.08C57.92 8.08 60.352 8.368 62.592 8.944C64.832 9.52 66.752 10.448 68.352 11.728C70.016 13.008 71.296 14.64 72.192 16.624C73.152 18.608 73.664 21.008 73.728 23.824C73.728 25.36 73.376 26.832 72.672 28.24C72.032 29.584 71.232 30.768 70.272 31.792C69.312 32.816 68.288 33.648 67.2 34.288C66.112 34.864 65.184 35.184 64.416 35.248C66.144 35.376 67.872 35.824 69.6 36.592C71.328 37.296 72.864 38.256 74.208 39.472C75.616 40.688 76.768 42.096 77.664 43.696C78.56 45.296 79.008 47.056 79.008 48.976C79.008 51.856 78.528 54.32 77.568 56.368C76.608 58.352 75.264 59.984 73.536 61.264C71.872 62.48 69.888 63.376 67.584 63.952C65.344 64.464 62.944 64.72 60.384 64.72H8.448V8.08H55.296ZM60.384 70.096C63.84 70.096 67.04 69.712 69.984 68.944C72.928 68.112 75.456 66.864 77.568 65.2C79.68 63.472 81.344 61.296 82.56 58.672C83.776 55.984 84.384 52.752 84.384 48.976C84.384 45.776 83.488 42.928 81.696 40.432C79.968 37.936 77.344 35.952 73.824 34.48C74.592 33.84 75.296 33.104 75.936 32.272C76.576 31.376 77.12 30.448 77.568 29.488C78.016 28.528 78.368 27.568 78.624 26.608C78.88 25.584 79.008 24.656 79.008 23.824C79.008 20.176 78.432 17.04 77.28 14.416C76.128 11.728 74.496 9.52 72.384 7.792C70.336 6.064 67.84 4.784 64.896 3.952C62.016 3.12 58.816 2.704 55.296 2.704H3.072V70.096H60.384ZM0.672 0.303999H55.296C61.056 0.303999 66.272 1.264 70.944 3.184C75.616 5.104 79.968 8.464 84 13.264C85.344 14.864 86.56 16.848 87.648 19.216C88.736 21.52 89.504 23.952 89.952 26.512C90.4 29.008 90.4 31.472 89.952 33.904C89.568 36.336 88.544 38.416 86.88 40.144C88.544 40.784 89.952 41.872 91.104 43.408C92.256 44.88 93.184 46.512 93.888 48.304C94.656 50.096 95.2 51.92 95.52 53.776C95.904 55.632 96.096 57.232 96.096 58.576C96.096 62.736 95.424 66.288 94.08 69.232C92.8 72.112 91.008 74.48 88.704 76.336C86.4 78.256 83.648 79.632 80.448 80.464C77.248 81.36 73.76 81.808 69.984 81.808H10.56L0.672 72.496V0.303999ZM114.553 8.08H120.313V58.864H174.553V64.72H114.553V8.08ZM109.273 70.096H179.833V53.488H125.689V2.704H109.273V70.096ZM106.873 0.303999H128.089L137.401 10.192V51.088H182.233L191.545 60.976V81.808H116.761L106.873 72.496V0.303999ZM215.135 8.08V36.4C215.135 40.56 215.807 44.08 217.151 46.96C218.495 49.776 220.351 52.08 222.719 53.872C225.151 55.6 227.967 56.88 231.167 57.712C234.367 58.48 237.855 58.864 241.631 58.864H252.191C255.903 58.864 259.359 58.48 262.559 57.712C265.823 56.88 268.639 55.6 271.007 53.872C273.439 52.08 275.327 49.776 276.671 46.96C278.079 44.08 278.783 40.56 278.783 36.4V8.08H284.831V36.4C284.831 41.584 283.999 45.968 282.335 49.552C280.671 53.136 278.367 56.08 275.423 58.384C272.543 60.624 269.119 62.256 265.151 63.28C261.183 64.24 256.863 64.72 252.191 64.72H241.631C236.959 64.72 232.607 64.24 228.575 63.28C224.607 62.256 221.151 60.624 218.207 58.384C215.327 56.08 213.055 53.136 211.391 49.552C209.791 45.968 208.991 41.584 208.991 36.4V8.08H215.135ZM203.711 36.4C203.711 42.48 204.639 47.664 206.495 51.952C208.351 56.176 210.943 59.632 214.271 62.32C217.663 65.008 221.663 66.992 226.271 68.272C230.943 69.488 236.063 70.096 241.631 70.096H252.191C257.759 70.096 262.847 69.488 267.455 68.272C272.127 66.992 276.127 65.008 279.455 62.32C282.847 59.632 285.471 56.176 287.327 51.952C289.183 47.664 290.111 42.48 290.111 36.4V2.704H273.407V36.4C273.407 39.664 272.831 42.384 271.679 44.56C270.527 46.736 268.991 48.496 267.071 49.84C265.151 51.12 262.911 52.048 260.351 52.624C257.791 53.2 255.071 53.488 252.191 53.488H241.631C238.751 53.488 236.031 53.2 233.471 52.624C230.911 52.048 228.671 51.088 226.751 49.744C224.831 48.4 223.295 46.64 222.143 44.464C221.055 42.288 220.511 39.6 220.511 36.4V2.704H203.711V36.4ZM201.311 0.303999H222.911L232.223 10.192V46C232.223 46.704 232.223 47.376 232.223 48.016C232.287 48.656 232.383 49.264 232.511 49.84C235.199 50.672 238.239 51.088 241.631 51.088H252.191C254.687 51.088 257.055 50.864 259.295 50.416C261.599 49.904 263.615 49.072 265.343 47.92C267.071 46.768 268.447 45.264 269.471 43.408C270.495 41.552 271.007 39.216 271.007 36.4V0.303999H292.511L301.823 10.192V46C301.823 52.464 300.831 57.968 298.847 62.512C296.863 67.056 294.111 70.736 290.591 73.552C287.071 76.432 282.847 78.512 277.919 79.792C272.991 81.136 267.615 81.808 261.791 81.808H251.231C247.967 81.808 244.799 81.648 241.727 81.328C238.719 81.008 235.839 80.464 233.087 79.696C230.399 78.992 227.903 78.032 225.599 76.816C223.295 75.6 221.247 74.096 219.455 72.304C215.807 69.168 212.799 66.192 210.431 63.376C208.127 60.496 206.303 57.616 204.959 54.736C203.615 51.856 202.655 48.944 202.079 46C201.567 42.992 201.311 39.792 201.311 36.4V0.303999ZM325.52 8.08H330.512L363.632 57.232C369.072 48.912 374.544 40.688 380.048 32.56C385.616 24.432 391.216 16.272 396.848 8.08H401.84V64.72H395.888V20.176L366.031 64.72H361.328L331.472 20.272V64.72H325.52V8.08ZM336.752 37.744L358.352 70.096H368.912L390.608 37.648V70.096H407.12V2.704H393.872L363.536 47.632L333.392 2.704H320.24V70.096H336.752V37.744ZM344.048 10.192L364.88 41.392L392.72 0.303999H409.52L418.832 10.192V81.808H398.096L388.208 72.496V68.944L379.568 81.808H366.896L357.2 72.496L348.464 59.44V81.808H327.728L317.84 72.496V0.303999H334.544L344.048 10.192ZM447.512 33.52H496.376V39.28H447.512V58.864H506.36V64.72H441.56V8.08H506.264V13.936H447.512V33.52ZM452.792 19.312H511.64V2.704H436.184V70.096H511.736V53.488H452.792V44.56H501.656V28.24H452.792V19.312ZM433.784 72.496V0.303999H514.04L523.352 10.192V31.024H508.664L513.368 35.728V51.088L523.448 60.976V81.808H443.672L433.784 72.496ZM598.432 64.72L546.688 17.2V64.72H541.024V8.08H545.92L597.472 55.6V8.08H603.232V64.72H598.432ZM608.608 70.096V2.704H592.192V43.504L547.744 2.704H535.648V70.096H552.064V29.2L596.608 70.096H608.608ZM533.248 72.496V0.303999H548.608L589.792 38.032V0.303999H611.008L620.32 10.192V81.808H605.344L563.776 43.696V81.808H543.136L533.248 72.496ZM647.474 51.568C649.522 53.552 651.794 55.056 654.29 56.08C656.786 57.104 659.378 57.84 662.066 58.288C664.754 58.672 667.506 58.896 670.322 58.96C673.138 58.96 675.858 58.96 678.482 58.96C679.442 58.96 680.722 58.928 682.322 58.864C683.986 58.8 685.746 58.672 687.602 58.48C689.522 58.224 691.442 57.904 693.362 57.52C695.282 57.072 697.01 56.496 698.546 55.792C700.146 55.088 701.426 54.256 702.386 53.296C703.41 52.272 703.922 51.056 703.922 49.648C703.922 48.24 703.378 47.024 702.29 46C701.266 44.912 699.922 43.984 698.258 43.216C696.594 42.448 694.706 41.808 692.594 41.296C690.546 40.72 688.498 40.304 686.45 40.048C684.402 39.728 682.482 39.504 680.69 39.376C678.962 39.248 677.554 39.184 676.466 39.184H676.562C675.026 39.12 673.138 38.96 670.898 38.704C668.658 38.448 666.322 38.064 663.89 37.552C661.458 37.04 659.026 36.4 656.594 35.632C654.162 34.8 651.986 33.808 650.066 32.656C648.146 31.504 646.578 30.16 645.362 28.624C644.146 27.024 643.538 25.2 643.538 23.152C643.538 20.912 644.114 18.992 645.266 17.392C646.482 15.792 648.018 14.448 649.874 13.36C651.794 12.208 653.938 11.312 656.306 10.672C658.674 9.968 661.074 9.424 663.506 9.04C665.938 8.656 668.242 8.4 670.418 8.272C672.658 8.144 674.546 8.08 676.082 8.08C678.578 8.08 681.106 8.208 683.666 8.464C686.29 8.656 688.85 9.04 691.346 9.616C693.842 10.192 696.274 10.992 698.642 12.016C701.01 12.976 703.186 14.224 705.17 15.76L700.082 19.408C698.226 18.128 696.274 17.136 694.226 16.432C692.178 15.664 690.066 15.088 687.89 14.704C685.714 14.32 683.506 14.096 681.266 14.032C679.026 13.904 676.85 13.84 674.738 13.84C673.266 13.84 671.25 13.936 668.69 14.128C666.194 14.32 663.698 14.736 661.202 15.376C658.77 15.952 656.658 16.88 654.866 18.16C653.074 19.376 652.178 21.04 652.178 23.152C652.178 25.2 653.042 26.864 654.77 28.144C656.498 29.36 658.77 30.352 661.586 31.12C664.402 31.824 667.602 32.4 671.186 32.848C674.834 33.232 678.546 33.648 682.322 34.096C686.098 34.544 689.778 35.088 693.362 35.728C697.01 36.304 700.242 37.168 703.058 38.32C705.874 39.408 708.146 40.88 709.874 42.736C711.602 44.528 712.466 46.832 712.466 49.648C712.466 51.632 711.858 53.392 710.642 54.928C709.49 56.464 707.954 57.808 706.034 58.96C704.114 60.048 701.938 60.976 699.506 61.744C697.138 62.448 694.738 63.024 692.306 63.472C689.938 63.92 687.666 64.24 685.49 64.432C683.314 64.624 681.522 64.72 680.114 64.72H672.914C670.29 64.72 667.538 64.624 664.658 64.432C661.778 64.24 658.962 63.824 656.21 63.184C653.458 62.48 650.834 61.52 648.338 60.304C645.842 59.088 643.634 57.424 641.714 55.312L647.474 51.568ZM633.746 53.296C636.306 57.456 639.346 60.688 642.866 62.992C646.386 65.232 650.194 66.896 654.29 67.984C658.386 69.008 662.61 69.616 666.962 69.808C671.378 70 675.762 70.096 680.114 70.096C682.034 70.096 684.306 69.968 686.93 69.712C689.554 69.392 692.274 68.912 695.09 68.272C697.906 67.632 700.658 66.8 703.346 65.776C706.098 64.688 708.53 63.408 710.642 61.936C712.818 60.4 714.546 58.64 715.826 56.656C717.17 54.608 717.842 52.272 717.842 49.648C717.842 46.512 717.138 43.856 715.73 41.68C714.386 39.44 712.594 37.584 710.354 36.112C708.178 34.576 705.65 33.36 702.77 32.464C699.954 31.504 697.042 30.768 694.034 30.256C691.026 29.744 688.082 29.36 685.202 29.104C682.322 28.848 679.762 28.624 677.522 28.432C676.754 28.368 675.282 28.24 673.106 28.048C670.93 27.792 668.69 27.472 666.386 27.088C664.082 26.64 662.034 26.096 660.242 25.456C658.45 24.816 657.554 24.048 657.554 23.152C657.554 22.128 658.386 21.36 660.05 20.848C661.714 20.336 663.602 19.952 665.714 19.696C667.89 19.44 669.97 19.312 671.954 19.312C674.002 19.248 675.378 19.216 676.082 19.216C678.13 19.216 680.21 19.312 682.322 19.504C684.434 19.632 686.482 19.952 688.466 20.464C690.514 20.976 692.434 21.712 694.226 22.672C696.082 23.632 697.778 24.88 699.314 26.416L713.33 17.008C710.898 13.68 708.146 11.088 705.074 9.232C702.002 7.312 698.738 5.872 695.282 4.912C691.826 3.952 688.21 3.344 684.434 3.088C680.722 2.832 676.978 2.704 673.202 2.704C671.218 2.704 668.946 2.864 666.386 3.184C663.89 3.44 661.33 3.888 658.706 4.528C656.146 5.168 653.618 6 651.122 7.024C648.69 8.048 646.514 9.328 644.594 10.864C642.674 12.4 641.138 14.192 639.986 16.24C638.834 18.224 638.258 20.528 638.258 23.152C638.258 26.16 638.994 28.752 640.466 30.928C641.938 33.104 643.89 34.96 646.322 36.496C648.754 38.032 651.506 39.28 654.578 40.24C657.65 41.2 660.754 42 663.89 42.64C667.09 43.216 670.162 43.696 673.106 44.08C676.114 44.4 678.738 44.688 680.978 44.944C681.618 45.008 682.866 45.136 684.722 45.328C686.642 45.52 688.626 45.808 690.674 46.192C692.722 46.512 694.546 46.96 696.146 47.536C697.746 48.112 698.546 48.816 698.546 49.648C698.546 50.352 698.034 50.96 697.01 51.472C695.986 51.92 694.674 52.304 693.074 52.624C691.474 52.88 689.714 53.072 687.794 53.2C685.874 53.328 683.986 53.424 682.13 53.488C680.338 53.552 678.706 53.584 677.234 53.584C675.826 53.584 674.834 53.584 674.258 53.584C671.826 53.584 669.426 53.488 667.058 53.296C664.69 53.04 662.386 52.592 660.146 51.952C657.906 51.248 655.794 50.288 653.81 49.072C651.826 47.856 650.034 46.224 648.434 44.176L633.746 53.296ZM647.666 41.776L643.058 37.072C640.818 35.408 639.058 33.456 637.778 31.216C636.498 28.912 635.858 26.224 635.858 23.152C635.858 20.208 636.466 17.616 637.682 15.376C638.962 13.072 640.626 11.088 642.674 9.424C644.722 7.76 647.058 6.352 649.682 5.2C652.306 3.984 654.994 3.024 657.746 2.32C660.498 1.616 663.218 1.104 665.906 0.783998C668.594 0.463999 671.026 0.303999 673.202 0.303999C676.978 0.303999 680.786 0.431997 684.626 0.687994C688.466 0.879995 692.21 1.456 695.858 2.41599C699.57 3.376 703.122 4.848 706.514 6.832C709.906 8.816 713.074 11.6 716.018 15.184C718.002 17.168 719.57 18.832 720.722 20.176C721.874 21.456 722.77 22.544 723.41 23.44C724.114 24.336 724.626 25.072 724.946 25.648C725.266 26.16 725.586 26.64 725.906 27.088L713.618 35.344C713.938 35.664 714.29 35.952 714.674 36.208C715.122 36.4 715.73 36.816 716.498 37.456C717.266 38.096 718.258 39.024 719.474 40.24C720.754 41.392 722.45 43.056 724.562 45.232C726.098 46.832 727.314 48.88 728.21 51.376C729.106 53.872 729.554 56.496 729.554 59.248C729.554 62.128 728.85 64.688 727.442 66.928C726.034 69.168 724.21 71.12 721.97 72.784C719.73 74.448 717.17 75.856 714.29 77.008C711.41 78.16 708.498 79.088 705.554 79.792C702.61 80.496 699.73 81.008 696.914 81.328C694.162 81.648 691.762 81.808 689.714 81.808C685.938 81.808 682.098 81.808 678.194 81.808C674.29 81.808 670.45 81.488 666.674 80.848C662.962 80.208 659.346 79.152 655.826 77.68C652.306 76.208 649.074 73.968 646.13 70.96C643.634 68.656 641.522 66.64 639.794 64.912C638.13 63.12 636.69 61.52 635.474 60.112C634.322 58.64 633.33 57.296 632.498 56.08C631.73 54.864 630.994 53.68 630.29 52.528L647.666 41.776ZM771.575 64.72V13.936H739.415V8.08H809.591V13.936H777.335V64.72H771.575ZM782.615 70.096V19.312H814.871V2.704H734.135V19.312H766.295V70.096H782.615ZM731.735 21.712V0.303999H817.271L826.583 10.192V31.024H794.327V81.808H773.783L763.895 72.496V31.024H741.623L731.735 21.712ZM891.084 19.312C891.852 19.312 892.652 19.376 893.484 19.504C894.316 19.632 895.084 19.856 895.788 20.176C896.492 20.496 897.068 20.944 897.516 21.52C898.028 22.096 898.284 22.864 898.284 23.824C898.284 24.72 898.028 25.456 897.516 26.032C897.004 26.608 896.364 27.056 895.596 27.376C894.892 27.696 894.092 27.92 893.196 28.048C892.364 28.176 891.628 28.24 890.988 28.24H855.468V19.312H891.084ZM890.988 33.52C892.524 33.52 894.028 33.36 895.5 33.04C897.036 32.656 898.412 32.08 899.628 31.312C900.844 30.544 901.804 29.552 902.508 28.336C903.276 27.056 903.66 25.552 903.66 23.824C903.66 22.032 903.308 20.496 902.604 19.216C901.9 17.936 900.94 16.912 899.724 16.144C898.572 15.376 897.228 14.832 895.692 14.512C894.22 14.128 892.684 13.936 891.084 13.936H850.188V33.52H890.988ZM899.724 37.84C898.828 38.352 897.836 38.736 896.748 38.992C895.66 39.248 894.636 39.504 893.676 39.76C897.26 43.984 900.844 48.144 904.428 52.24C908.076 56.336 911.724 60.496 915.372 64.72H907.596L885.42 39.28H850.188V64.72H844.236V8.08H891.084C893.708 8.08 896.14 8.368 898.38 8.944C900.684 9.52 902.636 10.448 904.236 11.728C905.9 13.008 907.18 14.64 908.076 16.624C909.036 18.608 909.516 21.008 909.516 23.824C909.516 27.344 908.716 30.256 907.116 32.56C905.516 34.8 903.084 36.56 899.82 37.84H899.724ZM914.892 23.824C914.892 20.176 914.316 17.04 913.164 14.416C912.012 11.728 910.38 9.52 908.268 7.792C906.156 6.064 903.628 4.784 900.684 3.952C897.804 3.12 894.604 2.704 891.084 2.704H839.052V70.096H855.468V44.56H882.924L905.004 70.096H927.084L902.892 42.352C910.892 38.832 914.892 32.656 914.892 23.824ZM836.652 72.496V0.303999H891.084C893.58 0.303999 895.98 0.495998 898.284 0.879997C900.588 1.2 902.892 1.904 905.196 2.992C907.564 4.08 909.996 5.64799 912.492 7.696C915.052 9.744 917.772 12.464 920.652 15.856C922.508 17.712 923.948 20.208 924.972 23.344C926.06 26.416 926.604 29.776 926.604 33.424C926.604 37.648 925.676 41.392 923.82 44.656C922.028 47.92 919.404 50.576 915.948 52.624C917.932 54.928 920.012 57.328 922.188 59.824C924.364 62.32 926.54 64.848 928.716 67.408C930.892 69.904 933.036 72.368 935.148 74.8C937.324 77.296 939.372 79.632 941.292 81.808H913.644L903.948 72.496L889.932 56.272H867.18V81.808H846.54L836.652 72.496ZM1016.03 43.888L995.769 15.184L975.033 43.888H1016.03ZM1005.66 38.704H985.305L995.577 24.304L1005.66 38.704ZM1030.33 64.72L1019.96 49.84H970.905C969.113 52.272 967.353 54.768 965.625 57.328C963.961 59.824 962.233 62.288 960.441 64.72H952.761C959.545 55.184 966.297 45.744 973.017 36.4C979.801 27.056 986.553 17.616 993.273 8.08H997.881L1037.53 64.72H1030.33ZM990.681 2.704L942.681 70.096H963.033L973.593 55.216H1016.99L1027.45 70.096H1047.8L1000.76 2.704H990.681ZM1011.51 10.192L1061.43 81.808H1035.9L1026.2 72.496L1022.27 66.928H984.345C983.577 68.08 982.713 69.296 981.753 70.576C980.857 71.856 979.929 73.136 978.969 74.416C978.073 75.76 977.177 77.04 976.281 78.256C975.385 79.536 974.553 80.72 973.785 81.808H948.153L937.977 72.496L989.433 0.303999H1002.01L1011.51 10.192ZM1075.1 8.08V36.4C1075.1 40.56 1075.78 44.08 1077.12 46.96C1078.46 49.776 1080.32 52.08 1082.69 53.872C1085.12 55.6 1087.94 56.88 1091.14 57.712C1094.34 58.48 1097.82 58.864 1101.6 58.864H1112.16C1115.87 58.864 1119.33 58.48 1122.53 57.712C1125.79 56.88 1128.61 55.6 1130.98 53.872C1133.41 52.08 1135.3 49.776 1136.64 46.96C1138.05 44.08 1138.75 40.56 1138.75 36.4V8.08H1144.8V36.4C1144.8 41.584 1143.97 45.968 1142.3 49.552C1140.64 53.136 1138.34 56.08 1135.39 58.384C1132.51 60.624 1129.09 62.256 1125.12 63.28C1121.15 64.24 1116.83 64.72 1112.16 64.72H1101.6C1096.93 64.72 1092.58 64.24 1088.54 63.28C1084.58 62.256 1081.12 60.624 1078.18 58.384C1075.3 56.08 1073.02 53.136 1071.36 49.552C1069.76 45.968 1068.96 41.584 1068.96 36.4V8.08H1075.1ZM1063.68 36.4C1063.68 42.48 1064.61 47.664 1066.46 51.952C1068.32 56.176 1070.91 59.632 1074.24 62.32C1077.63 65.008 1081.63 66.992 1086.24 68.272C1090.91 69.488 1096.03 70.096 1101.6 70.096H1112.16C1117.73 70.096 1122.82 69.488 1127.42 68.272C1132.1 66.992 1136.1 65.008 1139.42 62.32C1142.82 59.632 1145.44 56.176 1147.3 51.952C1149.15 47.664 1150.08 42.48 1150.08 36.4V2.704H1133.38V36.4C1133.38 39.664 1132.8 42.384 1131.65 44.56C1130.5 46.736 1128.96 48.496 1127.04 49.84C1125.12 51.12 1122.88 52.048 1120.32 52.624C1117.76 53.2 1115.04 53.488 1112.16 53.488H1101.6C1098.72 53.488 1096 53.2 1093.44 52.624C1090.88 52.048 1088.64 51.088 1086.72 49.744C1084.8 48.4 1083.26 46.64 1082.11 44.464C1081.02 42.288 1080.48 39.6 1080.48 36.4V2.704H1063.68V36.4ZM1061.28 0.303999H1082.88L1092.19 10.192V46C1092.19 46.704 1092.19 47.376 1092.19 48.016C1092.26 48.656 1092.35 49.264 1092.48 49.84C1095.17 50.672 1098.21 51.088 1101.6 51.088H1112.16C1114.66 51.088 1117.02 50.864 1119.26 50.416C1121.57 49.904 1123.58 49.072 1125.31 47.92C1127.04 46.768 1128.42 45.264 1129.44 43.408C1130.46 41.552 1130.98 39.216 1130.98 36.4V0.303999H1152.48L1161.79 10.192V46C1161.79 52.464 1160.8 57.968 1158.82 62.512C1156.83 67.056 1154.08 70.736 1150.56 73.552C1147.04 76.432 1142.82 78.512 1137.89 79.792C1132.96 81.136 1127.58 81.808 1121.76 81.808H1111.2C1107.94 81.808 1104.77 81.648 1101.7 81.328C1098.69 81.008 1095.81 80.464 1093.06 79.696C1090.37 78.992 1087.87 78.032 1085.57 76.816C1083.26 75.6 1081.22 74.096 1079.42 72.304C1075.78 69.168 1072.77 66.192 1070.4 63.376C1068.1 60.496 1066.27 57.616 1064.93 54.736C1063.58 51.856 1062.62 48.944 1062.05 46C1061.54 42.992 1061.28 39.792 1061.28 36.4V0.303999ZM1186.26 51.568C1188.3 53.552 1190.58 55.056 1193.07 56.08C1195.57 57.104 1198.16 57.84 1200.85 58.288C1203.54 58.672 1206.29 58.896 1209.1 58.96C1211.92 58.96 1214.64 58.96 1217.26 58.96C1218.22 58.96 1219.5 58.928 1221.1 58.864C1222.77 58.8 1224.53 58.672 1226.38 58.48C1228.3 58.224 1230.22 57.904 1232.14 57.52C1234.06 57.072 1235.79 56.496 1237.33 55.792C1238.93 55.088 1240.21 54.256 1241.17 53.296C1242.19 52.272 1242.7 51.056 1242.7 49.648C1242.7 48.24 1242.16 47.024 1241.07 46C1240.05 44.912 1238.7 43.984 1237.04 43.216C1235.38 42.448 1233.49 41.808 1231.38 41.296C1229.33 40.72 1227.28 40.304 1225.23 40.048C1223.18 39.728 1221.26 39.504 1219.47 39.376C1217.74 39.248 1216.34 39.184 1215.25 39.184H1215.34C1213.81 39.12 1211.92 38.96 1209.68 38.704C1207.44 38.448 1205.1 38.064 1202.67 37.552C1200.24 37.04 1197.81 36.4 1195.38 35.632C1192.94 34.8 1190.77 33.808 1188.85 32.656C1186.93 31.504 1185.36 30.16 1184.14 28.624C1182.93 27.024 1182.32 25.2 1182.32 23.152C1182.32 20.912 1182.9 18.992 1184.05 17.392C1185.26 15.792 1186.8 14.448 1188.66 13.36C1190.58 12.208 1192.72 11.312 1195.09 10.672C1197.46 9.968 1199.86 9.424 1202.29 9.04C1204.72 8.656 1207.02 8.4 1209.2 8.272C1211.44 8.144 1213.33 8.08 1214.86 8.08C1217.36 8.08 1219.89 8.208 1222.45 8.464C1225.07 8.656 1227.63 9.04 1230.13 9.616C1232.62 10.192 1235.06 10.992 1237.42 12.016C1239.79 12.976 1241.97 14.224 1243.95 15.76L1238.86 19.408C1237.01 18.128 1235.06 17.136 1233.01 16.432C1230.96 15.664 1228.85 15.088 1226.67 14.704C1224.5 14.32 1222.29 14.096 1220.05 14.032C1217.81 13.904 1215.63 13.84 1213.52 13.84C1212.05 13.84 1210.03 13.936 1207.47 14.128C1204.98 14.32 1202.48 14.736 1199.98 15.376C1197.55 15.952 1195.44 16.88 1193.65 18.16C1191.86 19.376 1190.96 21.04 1190.96 23.152C1190.96 25.2 1191.82 26.864 1193.55 28.144C1195.28 29.36 1197.55 30.352 1200.37 31.12C1203.18 31.824 1206.38 32.4 1209.97 32.848C1213.62 33.232 1217.33 33.648 1221.1 34.096C1224.88 34.544 1228.56 35.088 1232.14 35.728C1235.79 36.304 1239.02 37.168 1241.84 38.32C1244.66 39.408 1246.93 40.88 1248.66 42.736C1250.38 44.528 1251.25 46.832 1251.25 49.648C1251.25 51.632 1250.64 53.392 1249.42 54.928C1248.27 56.464 1246.74 57.808 1244.82 58.96C1242.9 60.048 1240.72 60.976 1238.29 61.744C1235.92 62.448 1233.52 63.024 1231.09 63.472C1228.72 63.92 1226.45 64.24 1224.27 64.432C1222.1 64.624 1220.3 64.72 1218.9 64.72H1211.7C1209.07 64.72 1206.32 64.624 1203.44 64.432C1200.56 64.24 1197.74 63.824 1194.99 63.184C1192.24 62.48 1189.62 61.52 1187.12 60.304C1184.62 59.088 1182.42 57.424 1180.5 55.312L1186.26 51.568ZM1172.53 53.296C1175.09 57.456 1178.13 60.688 1181.65 62.992C1185.17 65.232 1188.98 66.896 1193.07 67.984C1197.17 69.008 1201.39 69.616 1205.74 69.808C1210.16 70 1214.54 70.096 1218.9 70.096C1220.82 70.096 1223.09 69.968 1225.71 69.712C1228.34 69.392 1231.06 68.912 1233.87 68.272C1236.69 67.632 1239.44 66.8 1242.13 65.776C1244.88 64.688 1247.31 63.408 1249.42 61.936C1251.6 60.4 1253.33 58.64 1254.61 56.656C1255.95 54.608 1256.62 52.272 1256.62 49.648C1256.62 46.512 1255.92 43.856 1254.51 41.68C1253.17 39.44 1251.38 37.584 1249.14 36.112C1246.96 34.576 1244.43 33.36 1241.55 32.464C1238.74 31.504 1235.82 30.768 1232.82 30.256C1229.81 29.744 1226.86 29.36 1223.98 29.104C1221.1 28.848 1218.54 28.624 1216.3 28.432C1215.54 28.368 1214.06 28.24 1211.89 28.048C1209.71 27.792 1207.47 27.472 1205.17 27.088C1202.86 26.64 1200.82 26.096 1199.02 25.456C1197.23 24.816 1196.34 24.048 1196.34 23.152C1196.34 22.128 1197.17 21.36 1198.83 20.848C1200.5 20.336 1202.38 19.952 1204.5 19.696C1206.67 19.44 1208.75 19.312 1210.74 19.312C1212.78 19.248 1214.16 19.216 1214.86 19.216C1216.91 19.216 1218.99 19.312 1221.1 19.504C1223.22 19.632 1225.26 19.952 1227.25 20.464C1229.3 20.976 1231.22 21.712 1233.01 22.672C1234.86 23.632 1236.56 24.88 1238.1 26.416L1252.11 17.008C1249.68 13.68 1246.93 11.088 1243.86 9.232C1240.78 7.312 1237.52 5.872 1234.06 4.912C1230.61 3.952 1226.99 3.344 1223.22 3.088C1219.5 2.832 1215.76 2.704 1211.98 2.704C1210 2.704 1207.73 2.864 1205.17 3.184C1202.67 3.44 1200.11 3.888 1197.49 4.528C1194.93 5.168 1192.4 6 1189.9 7.024C1187.47 8.048 1185.3 9.328 1183.38 10.864C1181.46 12.4 1179.92 14.192 1178.77 16.24C1177.62 18.224 1177.04 20.528 1177.04 23.152C1177.04 26.16 1177.78 28.752 1179.25 30.928C1180.72 33.104 1182.67 34.96 1185.1 36.496C1187.54 38.032 1190.29 39.28 1193.36 40.24C1196.43 41.2 1199.54 42 1202.67 42.64C1205.87 43.216 1208.94 43.696 1211.89 44.08C1214.9 44.4 1217.52 44.688 1219.76 44.944C1220.4 45.008 1221.65 45.136 1223.5 45.328C1225.42 45.52 1227.41 45.808 1229.46 46.192C1231.5 46.512 1233.33 46.96 1234.93 47.536C1236.53 48.112 1237.33 48.816 1237.33 49.648C1237.33 50.352 1236.82 50.96 1235.79 51.472C1234.77 51.92 1233.46 52.304 1231.86 52.624C1230.26 52.88 1228.5 53.072 1226.58 53.2C1224.66 53.328 1222.77 53.424 1220.91 53.488C1219.12 53.552 1217.49 53.584 1216.02 53.584C1214.61 53.584 1213.62 53.584 1213.04 53.584C1210.61 53.584 1208.21 53.488 1205.84 53.296C1203.47 53.04 1201.17 52.592 1198.93 51.952C1196.69 51.248 1194.58 50.288 1192.59 49.072C1190.61 47.856 1188.82 46.224 1187.22 44.176L1172.53 53.296ZM1186.45 41.776L1181.84 37.072C1179.6 35.408 1177.84 33.456 1176.56 31.216C1175.28 28.912 1174.64 26.224 1174.64 23.152C1174.64 20.208 1175.25 17.616 1176.46 15.376C1177.74 13.072 1179.41 11.088 1181.46 9.424C1183.5 7.76 1185.84 6.352 1188.46 5.2C1191.09 3.984 1193.78 3.024 1196.53 2.32C1199.28 1.616 1202 1.104 1204.69 0.783998C1207.38 0.463999 1209.81 0.303999 1211.98 0.303999C1215.76 0.303999 1219.57 0.431997 1223.41 0.687994C1227.25 0.879995 1230.99 1.456 1234.64 2.41599C1238.35 3.376 1241.9 4.848 1245.3 6.832C1248.69 8.816 1251.86 11.6 1254.8 15.184C1256.78 17.168 1258.35 18.832 1259.5 20.176C1260.66 21.456 1261.55 22.544 1262.19 23.44C1262.9 24.336 1263.41 25.072 1263.73 25.648C1264.05 26.16 1264.37 26.64 1264.69 27.088L1252.4 35.344C1252.72 35.664 1253.07 35.952 1253.46 36.208C1253.9 36.4 1254.51 36.816 1255.28 37.456C1256.05 38.096 1257.04 39.024 1258.26 40.24C1259.54 41.392 1261.23 43.056 1263.34 45.232C1264.88 46.832 1266.1 48.88 1266.99 51.376C1267.89 53.872 1268.34 56.496 1268.34 59.248C1268.34 62.128 1267.63 64.688 1266.22 66.928C1264.82 69.168 1262.99 71.12 1260.75 72.784C1258.51 74.448 1255.95 75.856 1253.07 77.008C1250.19 78.16 1247.28 79.088 1244.34 79.792C1241.39 80.496 1238.51 81.008 1235.7 81.328C1232.94 81.648 1230.54 81.808 1228.5 81.808C1224.72 81.808 1220.88 81.808 1216.98 81.808C1213.07 81.808 1209.23 81.488 1205.46 80.848C1201.74 80.208 1198.13 79.152 1194.61 77.68C1191.09 76.208 1187.86 73.968 1184.91 70.96C1182.42 68.656 1180.3 66.64 1178.58 64.912C1176.91 63.12 1175.47 61.52 1174.26 60.112C1173.1 58.64 1172.11 57.296 1171.28 56.08C1170.51 54.864 1169.78 53.68 1169.07 52.528L1186.45 41.776Z" fill="white"/>
</svg>
